<svg width="25" height="25" viewBox="0 0 25 25" fill="none" xmlns="http://www.w3.org/2000/svg">
<path d="M21.4473 12.9846C21.29 14.6868 20.6512 16.309 19.6056 17.6614C18.56 19.0137 17.1508 20.0404 15.543 20.6211C13.9353 21.2019 12.1953 21.3127 10.5268 20.9407C8.85836 20.5686 7.33034 19.7291 6.12157 18.5204C4.9128 17.3116 4.07328 15.7836 3.70125 14.1151C3.32922 12.4466 3.44006 10.7067 4.0208 9.09888C4.60155 7.49109 5.62817 6.08195 6.98056 5.03633C8.33294 3.99072 9.95514 3.35189 11.6573 3.19458C10.6608 4.54285 10.1812 6.20403 10.3059 7.87599C10.4306 9.54796 11.1512 11.1196 12.3367 12.3052C13.5223 13.4907 15.094 14.2114 16.7659 14.336C18.4379 14.4607 20.0991 13.9812 21.4473 12.9846Z" fill="#0F111A" fill-opacity="0.5" stroke="#0F111A" stroke-width="2" stroke-linecap="round" stroke-linejoin="round"/>
</svg>
